{"title":"Child's Play 2 1990 DVDrip English Klam","uid":6700791,"size":1052922738,"categoryP":"video","categoryS":"movies","magnet":"?xt=urn:btih:e3b31e83779e6ea7e557d9f1a1df4808fc3abede&amp;dn=Child%5C%27s+Play+2+1990+DVDrip+English+Klam&amp;tr=udp%3A%2F%2Ftracker.openbittorrent.com%3A80&amp;tr=udp%3A%2F%2Fopen.demonii.com%3A1337&amp;tr=udp%3A%2F%2Ftracker.coppersurfer.tk%3A6969&amp;tr=udp%3A%2F%2Fexodus.desync.com%3A6969","seeders":0,"leechers":0,"uploader":"Klambake","files":6,"time":1316964591,"description":"With: Alex Vincent, Jenny Agutter en de stem van Brad Dourif\n\nHet jongetje Andy woont bij zijn pleegouders, omdat zijn moeder psychiatrische hulp krijgt. Wanneer Chucky opnieuw in zijn leven komt, begint de nachtmerrie van vooraf aan. De moordzuchtige pop Chucky werd beroemd in de ijzingwekkende film Child's Play. De pop is een angstaanjagend figuurtje dat, onder de dekmantel van een pop, een ware duivel is.\n\nChuckie's back as the doll possessed by the soul of a serial killer, butchering all who stand in his way of possessing the body of a boy. \n\n------------------ Dutch Friends ------------------\nYou can find my Friends at: http://www.Film-Test.nl \n------ They got my dutch subs ----- and more ------\n\nGeneral:\n\nComplete name                    : Child's Play 2\\Child's Play 2.avi\nFormat                           : AVI\nFormat/Info                      : Audio Video Interleave\nFile size                        : 1 004 MiB\nDuration                         : 1h 20mn\nOverall bit rate                 : 1 746 Kbps\n\nVideo:\n\nFormat                           : MPEG-4 Visual\nFormat profile                   : Simple@L3\nFormat settings, BVOP            : No\nFormat settings, QPel            : No\nFormat settings, GMC             : No warppoints\nFormat settings, Matrix          : Default (H.263)\nCodec ID                         : XVID\nCodec ID/Hint                    : XviD\nDuration                         : 1h 20mn\nBit rate                         : 1 543 Kbps\nWidth                            : 652 pixels\nHeight                           : 352 pixels\nDisplay aspect ratio             : 1.852\nFrame rate                       : 25.000 fps\nColor space                      : YUV\nChroma subsampling               : 4:2:0\nBit depth                        : 8 bits\nScan type                        : Progressive\nBits/(Pixel*Frame)               : 0.269\nStream size                      : 887 MiB (88%)\nWriting library                  : XviD 1.1.2 (UTC 2006-11-01)\n\nAudio:\n\nFormat                           : AC-3\nFormat/Info                      : Audio Coding 3\nMode extension                   : CM (complete main)\nCodec ID                         : 2000\nDuration                         : 1h 20mn\nBit rate mode                    : Constant\nBit rate                         : 192 Kbps\nChannel(s)                       : 2 channels\nChannel positions                : Front: L R\nSampling rate                    : 48.0 KHz\nBit depth                        : 16 bits\nStream size                      : 110 MiB (11%)\nAlignment                        : Aligned on interleaves\nInterleave, duration             : 32 ms (0.80 video frame)\n","torrent":{"xt":"urn:btih:e3b31e83779e6ea7e557d9f1a1df4808fc3abede","amp;dn":"Child%5C%27s+Play+2+1990+DVDrip+English+Klam","amp;tr":["udp%3A%2F%2Ftracker.openbittorrent.com%3A80","udp%3A%2F%2Fopen.demonii.com%3A1337","udp%3A%2F%2Ftracker.coppersurfer.tk%3A6969","udp%3A%2F%2Fexodus.desync.com%3A6969"],"infoHash":"e3b31e83779e6ea7e557d9f1a1df4808fc3abede","infoHashBuffer":{"type":"Buffer","data":[227,179,30,131,119,158,110,167,229,87,217,241,161,223,72,8,252,58,190,222]},"announce":[],"urlList":[]}}